<svg height="512pt" viewBox="0 0 512 512.00004" width="512pt" xmlns="http://www.w3.org/2000/svg"><path d="m164.378906 206.070312c110.953125-110.925781 148.40625-100.484374 181.964844-70.191406 6.703125 6.050782 23.492188 22.957032 28.265625 28.125 30.777344 33.300782 43.558594 69.28125-61.671875 176.523438-58.898438 60.183594-257.183594 193.605468-296.167969 154.613281-39.214843-39.246094 95.914063-237.378906 147.609375-289.070313zm0 0" fill="#ff9100"/><path d="m501.097656 120.117188c-2.929687-14.582032-14.570312-26.785157-28.964844-30.445313 13.867188-8.214844 12.898438-6.171875 17.574219-10.800781 17.558594-17.546875 15.40625-47.351563-6.464843-61.902344-12.761719-8.488281-30.265626-8.648438-43.15625-.351562-12.234376 7.890624-12.140626 14.816406-17.816407 23.25-5.113281-19.527344-24.609375-33.238282-46.488281-29.136719-19.027344 3.574219-36.203125 21.902343-32.078125 43.371093 4.453125 23.179688 21.117187 64.664063 4.421875 81.347657l-1.78125.429687c6.703125 6.050782 23.492188 22.957032 28.265625 28.125l1.832031-.25c16.695313-16.683594 58.191406.039063 81.378906 4.503906 26.324219 5.066407 48.722657-21.007812 43.277344-48.140624zm0 0" fill="#c3ea21"/><path d="m464.449219 178.90625c29.183593 0 52.789062-29.238281 46.460937-60.761719-2.289062-11.386719-8.835937-21.640625-17.820312-28.859375 25.757812-20.976562 24.476562-61.5-4.304688-80.652344-20.167968-13.410156-49.035156-10.535156-66.097656 10.214844-11.339844-14.207031-29.738281-21.519531-48.753906-17.953125-25.324219 4.757813-45.097656 28.871094-40.058594 55.09375 3.394531 17.675781 14.5625 48.734375 10.710938 65.347657-13.800782-10.644532-31.117188-18.882813-54.953126-14.738282-27.71875 4.816406-60.960937 25.714844-104.617187 65.773438-4.074219 3.738281-4.34375 10.070312-.605469 14.140625 3.734375 4.074219 10.066406 4.347656 14.140625.609375 11.863281-10.886719 22.640625-20.019532 32.46875-27.636719l46.597657 46.605469c3.90625 3.910156 10.242187 3.910156 14.152343 0 3.910157-3.90625 3.910157-10.242188 0-14.152344l-44.363281-44.375c55.429688-37.464844 75.472656-19.386719 92.234375-4.253906 5.820313 5.257812 22.578125 22.027344 27.621094 27.488281 14.636719 15.835937 22.714843 29.972656 17.761719 51.492187-5.851563 25.425782-29.5 59.492188-72.191407 103.972657l-35.230469-35.25c-3.910156-3.910157-10.246093-3.910157-14.15625-.003907-3.910156 3.910157-3.910156 10.246094-.003906 14.15625l35.378906 35.394532c-.003906.003906-.003906.003906-.007812.007812-20.914062 20.910156-68.820312 57.699219-120.203125 89.953125l-34.425781-34.445312c-3.90625-3.910157-10.242188-3.910157-14.152344-.003907s-3.914062 10.246094-.003906 14.15625l31.023437 31.042969c-3.210937 1.917969-6.425781 3.816407-9.636719 5.675781-78.859374 45.65625-118.003906 50.683594-127.5625 41.121094-3.5-3.5-12.496093-19.71875 17.039063-82.050781l32.546875 32.546875c3.910156 3.910156 10.246094 3.910156 14.15625 0 3.910156-3.90625 3.910156-10.246094 0-14.152344l-37.269531-37.273437c16.878906-32.257813 39.835937-69.136719 65.203125-104.664063l42.824218 42.839844c3.90625 3.90625 10.242188 3.914062 14.152344.003906 3.910156-3.90625 3.910156-10.246094.003906-14.15625l-45.046874-45.058594c5.808593-7.796874 11.515624-15.203124 17.023437-22.082031 3.457031-4.316406 2.761719-10.613281-1.554687-14.070312-4.316407-3.457031-10.613282-2.757813-14.070313 1.558593-39.902344 49.832032-164.203125 225.640626-119.167969 270.707032 30.023438 30.035156 115.066406-16.707032 151.753906-37.945313 64.734376-37.480469 126.382813-84.414062 151.507813-109.535156 31.808594-31.667969 81.613281-84.65625 91.578125-127.953125 5.945312-25.847656-2.105469-44.191406-13.945312-59.480469 19.953124-4.574219 57.097656 11.609375 73.863281 11.605469zm-4.734375-20.476562c-14.296875-2.753907-36.449219-10.5625-56.113282-11.765626 15.835938-15.203124 35.222657-27.09375 54.464844-37.757812l15.109375-8.375c9.09375 3.648438 16.171875 11.917969 18.109375 21.554688 4.035156 20.101562-12.257812 40.058593-31.570312 36.34375zm-21.070313-127.457032c10.503907-12.152344 27.578125-13.304687 39.054688-5.671875 17.5 11.644531 17.921875 35.4375 3.296875 48.007813l-32.632813 18.085937c-27.042969 14.992188-54.457031 32.382813-73.996093 57.929688-2.707032-2.730469-9.136719-9.160157-11.8125-11.808594 25.828124-19.820313 43.738281-48.210937 58.007812-73.9375 6.578125-11.859375 11.117188-20.050781 18.082031-32.605469zm-61.019531-10.402344c14.617188-2.734374 28.5 4.984376 33.777344 18.25l-8.34375 15.046876c-10.664063 19.226562-22.558594 38.601562-37.816406 54.445312-1.179688-19.652344-8.972657-41.859375-11.710938-56.101562-2.914062-15.164063 9.621094-28.921876 24.09375-31.640626zm0 0"/><path d="m156.070312 200.644531c-3.914062 3.914063-3.914062 10.25-.007812 14.152344 3.910156 3.914063 10.246094 3.914063 14.160156.011719 3.902344-3.914063 3.902344-10.25 0-14.164063-3.902344-3.902343-10.25-3.902343-14.152344 0zm0 0"/></svg>