<svg xmlns="http://www.w3.org/2000/svg" viewBox="0 0 165.97 183.97"><defs><style>.cls-1{fill:#ffa1f4;}.cls-2{fill:#fef;}.cls-3{fill:#ff83dc;}.cls-4{fill:#ffc5fe;}.cls-5{fill:#3a3937;}.cls-6{fill:#fda9ff;}</style></defs><g id="레이어_2" data-name="레이어 2"><g id="Layer_1" data-name="Layer 1"><path class="cls-1" d="M32.13,72.32s-70.75,42.22-2.28,35.37C29.85,107.69,56.1,72.32,32.13,72.32Z"/><path class="cls-2" d="M30.79,78s-57.15,34.11-1.85,28.58C28.94,106.55,50.14,78,30.79,78Z"/><path class="cls-1" d="M133.84,72.32s70.75,42.22,2.28,35.37C136.12,107.69,109.87,72.32,133.84,72.32Z"/><path class="cls-2" d="M135.18,78s57.15,34.11,1.85,28.58C137,106.55,115.83,78,135.18,78Z"/><path class="cls-3" d="M56.77,157.19,41,171.68s-3.49,5.83,6.73,3.5c0,0,7.9-2.59,9.45,1.81,0,0,1.42,7.63,6.86,1,0,0,2.85-2.58,5.18,2.2,0,0,6.85,8.16,5.69.39l-5.56-21.09S63.37,150.59,56.77,157.19Z"/><path class="cls-3" d="M109.2,157.19,125,171.68s3.49,5.83-6.73,3.5c0,0-7.9-2.59-9.45,1.81,0,0-1.42,7.63-6.86,1,0,0-2.85-2.58-5.18,2.2,0,0-6.86,8.16-5.69.39l5.56-21.09S102.6,150.59,109.2,157.19Z"/><path class="cls-1" d="M83,167.23c-68.81,2.14-58.37-65.86-53.76-86.07a83.59,83.59,0,0,0,1.84-11.88C36.29,4.61,64.78,0,78.16,0h9.67c12.52,0,41.87,4.61,47.06,69.27a82.69,82.69,0,0,0,1.85,11.9C141.35,101.4,151.77,169.37,83,167.23Z"/><path class="cls-2" d="M83,163.8C19,165.49,41.55,102,41.55,102,45.21,42.69,83,51.43,83,51.43s37.79-8.74,41.43,50.54C124.42,102,147,165.49,83,163.8Z"/><ellipse class="cls-2" cx="61.69" cy="44.17" rx="18.95" ry="26.34"/><ellipse class="cls-2" cx="104.28" cy="44.17" rx="18.95" ry="26.34"/><path class="cls-4" d="M72.5,56.05a1.83,1.83,0,0,1,.54-1.3l8.65-8.65a1.84,1.84,0,0,1,2.59,0l8.65,8.65a1.83,1.83,0,0,1,.54,1.3"/><ellipse class="cls-5" cx="61.69" cy="42.67" rx="7.5" ry="3.5"/><ellipse class="cls-5" cx="104.28" cy="42.67" rx="7.5" ry="3.5"/><path class="cls-6" d="M93.47,56.05a1.81,1.81,0,0,1-.54,1.29L84.28,66a1.82,1.82,0,0,1-2.59,0L73,57.34a1.81,1.81,0,0,1-.54-1.29"/></g></g></svg>