<svg xmlns="http://www.w3.org/2000/svg" xmlns:xlink="http://www.w3.org/1999/xlink" viewBox="0 0 112 102"><defs><style>.cls-1{fill:#00aa49;}.cls-2{clip-path:url(#clip-path);}.cls-3{fill:#00c55a;}.cls-4{fill:#fff;}.cls-5{fill:#ffa4dc;}.cls-6{fill:#305282;}.cls-7{fill:#ff3381;}.cls-8{fill:none;stroke:#231f20;stroke-linecap:round;stroke-linejoin:round;stroke-width:0.26px;}</style><clipPath id="clip-path" transform="translate(2 2)"><path id="시작" class="cls-1" d="M107.19,23.6,100,20V6a6,6,0,0,0-6-6H50A50,50,0,0,0,0,50H0a50,50,0,0,0,50,50H94a6,6,0,0,0,6-6V80l7.53-4.52A5.08,5.08,0,0,0,110,71.13v-43A5.07,5.07,0,0,0,107.19,23.6Z"/></clipPath></defs><g id="레이어_2" data-name="레이어 2"><g id="레이어_1-2" data-name="레이어 1"><path id="시작-2" data-name="시작" class="cls-1" d="M107.19,23.6,100,20V6a6,6,0,0,0-6-6H50A50,50,0,0,0,0,50H0a50,50,0,0,0,50,50H94a6,6,0,0,0,6-6V80l7.53-4.52A5.08,5.08,0,0,0,110,71.13v-43A5.07,5.07,0,0,0,107.19,23.6Z" transform="translate(2 2)"/><g class="cls-2"><path id="시작-3" data-name="시작" class="cls-3" d="M105.19,21.6,98,18V4a6,6,0,0,0-6-6H48A50,50,0,0,0-2,48h0A50,50,0,0,0,48,98H92a6,6,0,0,0,6-6V78l7.53-4.52A5.08,5.08,0,0,0,108,69.13v-43A5.07,5.07,0,0,0,105.19,21.6Z" transform="translate(2 2)"/></g><path class="cls-4" d="M59.56,27.72h8.59V42.3H59.56Z" transform="translate(2 2)"/><path class="cls-5" d="M61.34,29.5h5.17V42.85H61.34Z" transform="translate(2 2)"/><path class="cls-4" d="M41.72,27.72H50.3V42.3H41.72Z" transform="translate(2 2)"/><path class="cls-5" d="M43.49,29.5h5.17V42.85H43.49Z" transform="translate(2 2)"/><path class="cls-4" d="M41.72,41.76H68.28V60.69H41.72Z" transform="translate(2 2)"/><path class="cls-4" d="M46.08,59.88h18v12.4h-18Z" transform="translate(2 2)"/><circle class="cls-6" cx="51.21" cy="50.98" r="1.91"/><circle class="cls-6" cx="62.93" cy="50.98" r="1.91"/><path class="cls-7" d="M55.07,52.79,52.34,50.2h5.59" transform="translate(2 2)"/><path class="cls-8" d="M58.88,51.57a3.82,3.82,0,0,1-3.81,3.27,3.69,3.69,0,0,1-3.68-2.73" transform="translate(2 2)"/></g></g></svg>