<svg xmlns="http://www.w3.org/2000/svg" xmlns:xlink="http://www.w3.org/1999/xlink" viewBox="0 0 112 102"><defs><style>.cls-1{fill:#00aa49;}.cls-2{clip-path:url(#clip-path);}.cls-3{fill:#00c55a;}</style><clipPath id="clip-path" transform="translate(2 2)"><path id="시작" class="cls-1" d="M107.19,23.6,100,20V6a6,6,0,0,0-6-6H50A50,50,0,0,0,0,50H0a50,50,0,0,0,50,50H94a6,6,0,0,0,6-6V80l7.53-4.52A5.08,5.08,0,0,0,110,71.13v-43A5.07,5.07,0,0,0,107.19,23.6Z"/></clipPath></defs><g id="레이어_2" data-name="레이어 2"><g id="레이어_1-2" data-name="레이어 1"><path id="시작-2" data-name="시작" class="cls-1" d="M107.19,23.6,100,20V6a6,6,0,0,0-6-6H50A50,50,0,0,0,0,50H0a50,50,0,0,0,50,50H94a6,6,0,0,0,6-6V80l7.53-4.52A5.08,5.08,0,0,0,110,71.13v-43A5.07,5.07,0,0,0,107.19,23.6Z" transform="translate(2 2)"/><g class="cls-2"><path id="시작-3" data-name="시작" class="cls-3" d="M105.19,21.6,98,18V4a6,6,0,0,0-6-6H48A50,50,0,0,0-2,48h0A50,50,0,0,0,48,98H92a6,6,0,0,0,6-6V78l7.53-4.52A5.08,5.08,0,0,0,108,69.13v-43A5.07,5.07,0,0,0,105.19,21.6Z" transform="translate(2 2)"/></g></g></g></svg>