<svg xmlns="http://www.w3.org/2000/svg" xmlns:xlink="http://www.w3.org/1999/xlink" viewBox="0 0 42 102"><defs><style>.cls-1{fill:#b474e2;}.cls-2{clip-path:url(#clip-path);}.cls-3{fill:#ce81fe;}</style><clipPath id="clip-path" transform="translate(2 2)"><path class="cls-1" d="M37.19,23.6,30,20V0H6A6,6,0,0,0,0,6V20l7.19,3.6A5.07,5.07,0,0,1,10,28.14v43a5.08,5.08,0,0,1-2.47,4.35L0,80V94a6,6,0,0,0,6,6H24a6,6,0,0,0,6-6V80l7.53-4.52A5.08,5.08,0,0,0,40,71.13v-43A5.07,5.07,0,0,0,37.19,23.6Z"/></clipPath></defs><g id="레이어_2" data-name="레이어 2"><g id="레이어_1-2" data-name="레이어 1"><path class="cls-1" d="M37.19,23.6,30,20V0H6A6,6,0,0,0,0,6V20l7.19,3.6A5.07,5.07,0,0,1,10,28.14v43a5.08,5.08,0,0,1-2.47,4.35L0,80V94a6,6,0,0,0,6,6H24a6,6,0,0,0,6-6V80l7.53-4.52A5.08,5.08,0,0,0,40,71.13v-43A5.07,5.07,0,0,0,37.19,23.6Z" transform="translate(2 2)"/><g class="cls-2"><path class="cls-3" d="M35.19,21.6,28,18V-2H4A6,6,0,0,0-2,4V18l7.19,3.6A5.07,5.07,0,0,1,8,26.14v43a5.08,5.08,0,0,1-2.47,4.35L-2,78V92a6,6,0,0,0,6,6H22a6,6,0,0,0,6-6V78l7.53-4.52A5.08,5.08,0,0,0,38,69.13v-43A5.07,5.07,0,0,0,35.19,21.6Z" transform="translate(2 2)"/></g></g></g></svg>