<svg xmlns="http://www.w3.org/2000/svg" viewBox="0 0 300 240"><defs><style>.cls-1{fill:#00c951;}.cls-2{fill:#00ad46;}</style></defs><g id="레이어_2" data-name="레이어 2"><g id="레이어_2-2" data-name="레이어 2"><rect class="cls-1" y="60" width="60" height="60"/><rect class="cls-2" width="60" height="60"/><rect class="cls-2" y="120" width="60" height="60"/><rect class="cls-1" y="180" width="60" height="60"/><rect class="cls-2" x="60" y="60" width="60" height="60"/><rect class="cls-1" x="60" width="60" height="60"/><rect class="cls-1" x="60" y="120" width="60" height="60"/><rect class="cls-2" x="60" y="180" width="60" height="60"/><rect class="cls-1" x="120" y="60" width="60" height="60"/><rect class="cls-2" x="120" width="60" height="60"/><rect class="cls-2" x="120" y="120" width="60" height="60"/><rect class="cls-1" x="120" y="180" width="60" height="60"/><rect class="cls-2" x="180" y="60" width="60" height="60"/><rect class="cls-1" x="180" width="60" height="60"/><rect class="cls-1" x="180" y="120" width="60" height="60"/><rect class="cls-2" x="180" y="180" width="60" height="60"/><rect class="cls-1" x="240" y="60" width="60" height="60"/><rect class="cls-2" x="240" width="60" height="60"/><rect class="cls-2" x="240" y="120" width="60" height="60"/><rect class="cls-1" x="240" y="180" width="60" height="60"/></g></g></svg>