<svg xmlns="http://www.w3.org/2000/svg" viewBox="0 0 55.38 52.04"><defs><style>.cls-1{fill:none;stroke:#fff;stroke-linecap:round;stroke-miterlimit:10;stroke-width:6px;}.cls-2{fill:#fff;}</style></defs><g id="레이어_2" data-name="레이어 2"><g id="레이어_1-2" data-name="레이어 1"><path class="cls-1" d="M48.73,33.87a21.61,21.61,0,0,1-41.26,0"/><path class="cls-2" d="M7.27,34.07H2.07c-1.59,0-2.58-1.35-1.79-2.43l2.6-3.53,2.6-3.53a2.38,2.38,0,0,1,3.58,0l2.6,3.53,2.6,3.53c.79,1.08-.2,2.43-1.79,2.43Z"/><path class="cls-1" d="M6.86,18.18a21.61,21.61,0,0,1,41.25,0"/><path class="cls-2" d="M48.11,17.51h5.2c1.59,0,2.58,1.35,1.79,2.43l-2.6,3.53L49.9,27a2.38,2.38,0,0,1-3.58,0l-2.6-3.53-2.6-3.53c-.8-1.08.2-2.43,1.79-2.43Z"/></g></g></svg>