<svg xmlns="http://www.w3.org/2000/svg" viewBox="0 0 100 100"><defs><style>.cls-1{fill:#2ee5ca;}.cls-2{fill:#ffa1f4;}.cls-3{fill:#fef;}.cls-4{fill:#ff83dc;}.cls-5{fill:#ffc5fe;}.cls-6{fill:#3a3937;}.cls-7{fill:#fda9ff;}</style></defs><g id="레이어_2" data-name="레이어 2"><g id="레이어_1-2" data-name="레이어 1"><rect class="cls-1" width="100" height="100" rx="6"/><path class="cls-2" d="M31.36,44.61S6.75,59.3,30.57,56.91C30.57,56.91,39.69,44.61,31.36,44.61Z"/><path class="cls-3" d="M30.89,46.58S11,58.44,30.25,56.52C30.25,56.52,37.62,46.58,30.89,46.58Z"/><path class="cls-2" d="M66.73,44.61s24.6,14.69.79,12.3C67.52,56.91,58.39,44.61,66.73,44.61Z"/><path class="cls-3" d="M67.19,46.58s19.88,11.86.65,9.94C67.84,56.52,60.46,46.58,67.19,46.58Z"/><path class="cls-4" d="M39.93,74.13l-5.49,5s-1.22,2,2.34,1.21c0,0,2.74-.9,3.28.63,0,0,.5,2.66,2.39.36,0,0,1-.9,1.8.77,0,0,2.38,2.83,2,.13l-1.94-7.33S42.22,71.83,39.93,74.13Z"/><path class="cls-4" d="M58.16,74.13l5.49,5s1.21,2-2.34,1.21c0,0-2.75-.9-3.29.63,0,0-.49,2.66-2.38.36,0,0-1-.9-1.8.77,0,0-2.39,2.83-2,.13l1.93-7.33S55.86,71.83,58.16,74.13Z"/><path class="cls-2" d="M49.05,77.62c-23.93.74-20.3-22.9-18.7-29.93A28.83,28.83,0,0,0,31,43.56C32.8,21.07,42.71,19.45,47.37,19.47h3.36c4.35,0,14.56,1.6,16.36,24.08a28.75,28.75,0,0,0,.64,4.14C69.34,54.73,73,78.36,49.05,77.62Z"/><path class="cls-3" d="M49.05,76.42C26.8,77,34.63,54.93,34.63,54.93c1.28-20.62,14.42-17.58,14.42-17.58s13.13-3,14.4,17.58C63.45,54.93,71.28,77,49.05,76.42Z"/><ellipse class="cls-3" cx="41.64" cy="34.83" rx="6.59" ry="9.16"/><ellipse class="cls-3" cx="56.45" cy="34.83" rx="6.59" ry="9.16"/><path class="cls-5" d="M45.4,39a.66.66,0,0,1,.18-.45l3-3a.63.63,0,0,1,.9,0l3,3a.63.63,0,0,1,.19.45"/><ellipse class="cls-6" cx="41.64" cy="34.3" rx="2.61" ry="1.22"/><ellipse class="cls-6" cx="56.45" cy="34.3" rx="2.61" ry="1.22"/><path class="cls-7" d="M52.69,39a.63.63,0,0,1-.19.46l-3,3a.63.63,0,0,1-.9,0l-3-3A.67.67,0,0,1,45.4,39"/></g></g></svg>